<svg xmlns="http://www.w3.org/2000/svg" shape-rendering="geometricPrecision" text-rendering="geometricPrecision" image-rendering="optimizeQuality" fill-rule="evenodd" clip-rule="evenodd" viewBox="0 0 512 497.435"><path d="M9.576 0h492.849C507.692 0 512 4.314 512 9.576v61.179c0 5.263-4.313 9.576-9.575 9.576H9.576C4.313 80.331 0 76.023 0 70.755V9.576C0 4.308 4.308 0 9.576 0zm0 417.104h492.849c5.267 0 9.575 4.314 9.575 9.576v61.179c0 5.263-4.313 9.576-9.575 9.576H9.576c-5.263 0-9.576-4.308-9.576-9.576V426.68c0-5.268 4.308-9.576 9.576-9.576zm0-139.035h492.849c5.267 0 9.575 4.313 9.575 9.576v61.179c0 5.262-4.313 9.576-9.575 9.576H9.576C4.313 358.4 0 354.092 0 348.824v-61.179c0-5.268 4.308-9.576 9.576-9.576zm0-139.033h492.849c5.267 0 9.575 4.313 9.575 9.575v61.179c0 5.263-4.313 9.576-9.575 9.576H9.576c-5.263 0-9.576-4.307-9.576-9.576v-61.179c0-5.268 4.308-9.575 9.576-9.575z"/></svg>