<?xml version="1.0" encoding="UTF-8"?> <svg xmlns="http://www.w3.org/2000/svg" id="Layer_2" data-name="Layer 2" viewBox="0 0 1733.9 302.45"><defs><style> .cls-1 { fill: #be2728; fill-rule: evenodd; } .cls-1, .cls-2 { stroke-width: 0px; } .cls-2 { fill: #fff; } </style></defs><g id="Layer_1-2" data-name="Layer 1"><g><g><path class="cls-2" d="M133.86,66.96c-.17,7.68-1.56,14.83-4.16,21.46-2.61,6.64-6.42,12.76-11.46,18.34h0c-5.06,5.59-10.71,9.96-16.95,13.1-6.24,3.14-13.08,5.05-20.51,5.74h0s-2.96.29-2.96.29l51.72,69.65,1.71,2.31h-27.3l-.44-.58L38.53,110.28l-1.73-2.31h21.63c8.27,0,15.66-1.06,22.17-3.18,6.47-2.1,12.09-5.26,16.86-9.46,4.75-4.18,8.23-8.9,10.43-14.16,2.21-5.26,3.15-11.07,2.83-17.43h0c-.24-5.83-1.41-11.09-3.5-15.79-2.08-4.68-5.09-8.83-9.03-12.45h0c-4.26-3.95-9.22-6.91-14.87-8.89-5.67-1.98-12.05-2.98-19.15-2.98H22.64v174.21H0V2.75h62.93c21.7,0,39.03,6,51.97,18.01,6.48,6.01,11.31,12.88,14.47,20.6,3.16,7.7,4.65,16.23,4.48,25.6h0Z"></path><path class="cls-2" d="M642.06,97.7c-.49-20.91-8.74-38.47-24.76-52.69-8.03-7.13-16.78-12.47-26.23-16.04-9.45-3.56-19.63-5.34-30.55-5.34h-38.79v153.32h44.29c10.72,0,20.62-1.96,29.7-5.88,9.09-3.92,17.38-9.81,24.86-17.66,7.49-7.86,13.03-16.43,16.6-25.71,3.57-9.27,5.2-19.27,4.87-30h0ZM664.44,100.42c0,26.72-9.6,49.64-28.8,68.76-19.2,19.11-42.07,28.67-68.63,28.67h-66.68V2.75h57.18c15.49,0,29.63,2.32,42.42,6.96,12.8,4.65,24.23,11.62,34.29,20.92,10.06,9.3,17.61,19.78,22.65,31.42,5.04,11.65,7.56,24.44,7.56,38.37Z"></path><path class="cls-2" d="M1178.68,66.96c-.17,7.68-1.56,14.83-4.16,21.46-2.6,6.64-6.42,12.76-11.46,18.34h0c-5.06,5.59-10.71,9.96-16.95,13.1-6.24,3.14-13.08,5.05-20.51,5.74h0s-2.96.29-2.96.29l51.72,69.65,1.71,2.31h-27.3l-.44-.58-64.98-86.98-1.73-2.31h21.63c8.27,0,15.66-1.06,22.17-3.18,6.47-2.1,12.1-5.26,16.86-9.46,4.75-4.18,8.23-8.9,10.43-14.16,2.21-5.26,3.15-11.07,2.83-17.43h0c-.24-5.83-1.41-11.09-3.5-15.79-2.08-4.68-5.09-8.83-9.03-12.45h0c-4.26-3.95-9.22-6.91-14.87-8.88-5.67-1.99-12.05-2.98-19.15-2.98h-41.54v174.21h-22.64V2.75h62.93c21.7,0,39.03,6,51.97,18.01,6.48,6.01,11.31,12.88,14.47,20.6,3.16,7.7,4.65,16.23,4.48,25.6h0Z"></path><polygon class="cls-2" points="1269.55 197.84 1250.56 197.84 1249.11 197.84 1249.11 196.39 1249.11 3.94 1249.11 2.5 1250.56 2.5 1269.55 2.5 1271 2.5 1271 3.94 1271 196.39 1271 197.84 1269.55 197.84"></polygon><path class="cls-2" d="M1527.02,147.58c-4.48,8.44-9.74,15.95-15.8,22.52-6.07,6.58-12.93,12.21-20.59,16.91-7.65,4.69-15.82,8.26-24.52,10.69-8.67,2.43-17.87,3.73-27.57,3.89h0c-13.78.17-26.59-2.22-38.4-7.17-11.82-4.95-22.66-12.45-32.5-22.51-9.84-10.05-17.22-21.08-22.14-33.08-4.93-12.01-7.39-24.99-7.39-38.91s2.48-27.51,7.42-39.48c4.95-11.98,12.37-22.74,22.26-32.3h0c9.63-9.46,20.35-16.54,32.15-21.23,11.8-4.69,24.66-7,38.59-6.91h0c9.72.08,18.99,1.37,27.81,3.86,8.83,2.49,17.22,6.19,25.17,11.1h.01c7.6,4.82,14.37,10.46,20.29,16.94,5.93,6.48,11,13.76,15.22,21.86l1.1,2.11h-24.89l-.43-.63c-7.86-11.46-17.26-20.01-28.21-25.65-10.95-5.64-23.48-8.38-37.57-8.21h-.01c-10.47,0-20.21,1.89-29.21,5.67-9.01,3.78-17.3,9.46-24.87,17.03-7.58,7.58-13.32,15.92-17.22,25-3.91,9.1-5.98,18.97-6.23,29.61-.25,11.05,1.52,21.35,5.31,30.9,3.78,9.55,9.59,18.36,17.4,26.43,7.82,8.07,16.42,14.12,25.81,18.14,9.38,4.02,19.55,6.04,30.52,6.04,6.38,0,12.67-.83,18.87-2.48,6.22-1.66,12.36-4.16,18.42-7.5h0c5.81-3.17,10.99-6.77,15.53-10.79,4.54-4.02,8.44-8.46,11.7-13.32l.43-.64h24.66l-1.12,2.12Z"></path><polygon class="cls-2" points="1730.95 197.84 1707.75 197.84 1707.05 197.84 1706.61 197.28 1642.13 115.08 1618.72 144.57 1618.72 196.39 1618.72 197.84 1617.27 197.84 1598.27 197.84 1596.83 197.84 1596.83 196.39 1596.83 3.94 1596.83 2.5 1598.27 2.5 1618.52 2.5 1619.97 2.5 1619.97 3.94 1619.97 109.31 1705.37 3.04 1705.81 2.5 1706.5 2.5 1730.86 2.5 1733.9 2.5 1731.98 4.85 1656.68 97.36 1732.1 195.52 1733.88 197.84 1730.95 197.84"></polygon><path class="cls-2" d="M898.84,23.39h-32.67v61.34h33.67c9.71,0,18.21-2.86,25.57-8.57,3.63-2.82,6.35-6.04,8.15-9.66,1.8-3.61,2.7-7.63,2.7-12.07,0-4.94-.95-9.34-2.85-13.17-1.9-3.82-4.76-7.13-8.59-9.9l-.03-.02c-3.47-2.65-7.35-4.63-11.65-5.95-4.32-1.33-9.08-1.99-14.3-1.99M944.51,139.86c-.32-5.85-1.64-10.99-3.96-15.41-2.3-4.4-5.61-8.11-9.93-11.14h0c-3.94-2.71-8.56-4.76-13.86-6.13-5.32-1.37-11.34-2.06-18.06-2.06h-32.54v71.34h33.54c7.27,0,13.73-.85,19.38-2.55,5.61-1.69,10.42-4.21,14.43-7.56,3.98-3.35,6.89-7.21,8.72-11.6,1.83-4.4,2.59-9.36,2.27-14.87ZM967.14,141.61c.51,15.78-5.44,29.12-17.86,40-6.17,5.41-12.87,9.46-20.1,12.17-7.23,2.71-14.97,4.06-23.22,4.06h-62.68V2.5h55.93c15.67,0,29.21,4.61,40.64,13.82,6.08,4.88,10.65,10.42,13.7,16.61,3.06,6.2,4.59,13.04,4.59,20.51,0,16.85-6.86,30.12-20.58,39.79,18.89,9.72,28.74,25.85,29.57,48.38h0Z"></path><polygon class="cls-1" points="258.11 37.12 258.11 2.96 425.17 2.96 425.17 37.11 295.78 37.11 258.11 37.12"></polygon><polygon class="cls-1" points="206.45 198.07 206.45 163.91 373.51 163.91 373.51 198.07 244.12 198.07 206.45 198.07"></polygon><polygon class="cls-1" points="232.28 117.6 232.28 83.44 399.34 83.44 399.34 117.59 269.95 117.59 232.28 117.6"></polygon></g><path class="cls-2" d="M4.58,301.92v-35.04h22.79v5.32H10.93v9.51h15.26v5.32h-15.26v9.57h16.58v5.32H4.58ZM85.3,266.88v35.04h-5.65l-16.51-23.87h-.29v23.87h-6.35v-35.04h5.68l16.5,23.89h.31v-23.89h6.31ZM113.32,272.2v-5.32h27.96v5.32h-10.83v29.72h-6.3v-29.72h-10.83ZM169.32,301.92v-35.04h22.79v5.32h-16.44v9.51h15.26v5.32h-15.26v9.57h16.58v5.32h-22.93ZM221.24,301.92v-35.04h13.14c2.69,0,4.95.47,6.78,1.4,1.84.94,3.22,2.25,4.16,3.94.95,1.68,1.42,3.63,1.42,5.87s-.48,4.2-1.44,5.85c-.95,1.64-2.34,2.91-4.19,3.82-1.85.89-4.12,1.33-6.81,1.33h-9.36v-5.27h8.5c1.57,0,2.86-.22,3.87-.65,1-.44,1.75-1.09,2.22-1.93.49-.86.74-1.91.74-3.15s-.25-2.3-.74-3.18c-.49-.89-1.24-1.56-2.24-2.02-1-.47-2.3-.7-3.88-.7h-5.82v29.74h-6.35ZM239.34,286.05l8.68,15.88h-7.08l-8.52-15.88h6.93ZM275.22,301.92v-35.04h13.14c2.69,0,4.95.5,6.78,1.51,1.84,1,3.22,2.38,4.16,4.14.95,1.75,1.42,3.73,1.42,5.95s-.47,4.24-1.42,5.99c-.95,1.75-2.34,3.12-4.19,4.12-1.85.99-4.12,1.49-6.83,1.49h-8.71v-5.22h7.85c1.57,0,2.86-.27,3.87-.82,1-.55,1.75-1.3,2.22-2.26.49-.96.74-2.06.74-3.3s-.24-2.34-.74-3.29c-.48-.95-1.23-1.68-2.24-2.21-1-.54-2.3-.8-3.88-.8h-5.82v29.74h-6.35ZM328.88,301.92v-35.04h13.14c2.69,0,4.95.47,6.78,1.4,1.84.94,3.22,2.25,4.16,3.94.95,1.68,1.42,3.63,1.42,5.87s-.48,4.2-1.44,5.85c-.95,1.64-2.34,2.91-4.19,3.82-1.85.89-4.12,1.33-6.81,1.33h-9.36v-5.27h8.5c1.58,0,2.87-.22,3.87-.65,1-.44,1.75-1.09,2.23-1.93.49-.86.73-1.91.73-3.15s-.24-2.3-.73-3.18c-.49-.89-1.24-1.56-2.24-2.02-1-.47-2.3-.7-3.88-.7h-5.82v29.74h-6.35ZM346.99,286.05l8.67,15.88h-7.08l-8.52-15.88h6.93ZM389.21,266.88v35.04h-6.35v-35.04h6.35ZM437.78,276.51c-.16-1.49-.83-2.66-2.02-3.49-1.17-.83-2.7-1.25-4.59-1.25-1.32,0-2.46.2-3.4.6-.95.4-1.67.94-2.18,1.63-.5.68-.76,1.47-.77,2.34,0,.73.16,1.36.49,1.9.34.54.8.99,1.39,1.37.58.37,1.23.67,1.93.92.71.25,1.42.46,2.14.63l3.28.82c1.32.31,2.6.72,3.82,1.25,1.23.52,2.33,1.19,3.3,1.98.98.8,1.76,1.76,2.33,2.89.57,1.13.86,2.45.86,3.97,0,2.05-.53,3.86-1.58,5.42-1.05,1.55-2.57,2.77-4.55,3.65-1.98.87-4.36,1.3-7.17,1.3s-5.1-.42-7.1-1.27c-2-.84-3.56-2.08-4.69-3.7-1.12-1.62-1.72-3.59-1.82-5.92h6.25c.09,1.22.47,2.24,1.13,3.05.66.81,1.52,1.41,2.58,1.81,1.07.4,2.27.6,3.6.6s2.59-.21,3.63-.62c1.05-.42,1.87-1,2.46-1.75.59-.75.9-1.63.91-2.64-.01-.91-.28-1.67-.8-2.26-.53-.6-1.26-1.11-2.21-1.51-.93-.41-2.03-.78-3.28-1.1l-3.99-1.03c-2.88-.74-5.17-1.87-6.84-3.37-1.67-1.52-2.5-3.53-2.5-6.04,0-2.06.56-3.87,1.68-5.42,1.13-1.55,2.67-2.75,4.6-3.61,1.94-.87,4.14-1.3,6.59-1.3s4.67.43,6.54,1.3c1.88.86,3.36,2.05,4.43,3.58,1.07,1.52,1.62,3.26,1.66,5.24h-6.11ZM472.68,301.92v-35.04h22.8v5.32h-16.45v9.51h15.26v5.32h-15.26v9.57h16.58v5.32h-22.93ZM574.85,281.85v5.1h-15.78v-5.1h15.78ZM638.89,266.88h7.77l10.4,25.39h.41l10.4-25.39h7.77v35.04h-6.09v-24.08h-.33l-9.69,23.97h-4.55l-9.69-24.02h-.33v24.13h-6.09v-35.04ZM709.7,301.92h-6.78l12.34-35.04h7.84l12.35,35.04h-6.78l-9.36-27.86h-.27l-9.34,27.86ZM709.92,288.18h18.48v5.1h-18.48v-5.1ZM791.52,266.88v35.04h-5.65l-16.51-23.87h-.29v23.87h-6.35v-35.04h5.68l16.49,23.89h.31v-23.89h6.32ZM825.58,301.92h-6.78l12.34-35.04h7.84l12.35,35.04h-6.78l-9.36-27.86h-.27l-9.34,27.86ZM825.8,288.18h18.48v5.1h-18.48v-5.1ZM900.43,278.07c-.29-.92-.68-1.75-1.18-2.48-.49-.74-1.08-1.37-1.78-1.9-.69-.52-1.47-.92-2.36-1.18-.89-.27-1.86-.41-2.91-.41-1.88,0-3.56.47-5.03,1.42-1.47.95-2.63,2.34-3.47,4.18-.83,1.83-1.25,4.05-1.25,6.67s.42,4.89,1.25,6.72c.83,1.84,1.99,3.23,3.47,4.19,1.48.95,3.21,1.42,5.17,1.42,1.78,0,3.32-.34,4.62-1.03,1.31-.68,2.32-1.65,3.03-2.91.71-1.27,1.06-2.75,1.06-4.45l1.44.22h-9.51v-4.96h14.22v4.21c0,3-.64,5.6-1.92,7.79-1.28,2.19-3.03,3.88-5.27,5.07-2.24,1.17-4.8,1.76-7.7,1.76-3.23,0-6.06-.72-8.5-2.17-2.43-1.46-4.33-3.53-5.7-6.21-1.36-2.69-2.03-5.89-2.03-9.58,0-2.83.4-5.36,1.2-7.58.81-2.22,1.94-4.11,3.39-5.66,1.45-1.56,3.15-2.75,5.1-3.56,1.95-.82,4.07-1.23,6.36-1.23,1.94,0,3.75.29,5.43.86,1.68.56,3.17,1.36,4.46,2.4,1.31,1.04,2.39,2.27,3.24,3.7.85,1.43,1.4,3,1.66,4.72h-6.47ZM935.97,301.92v-35.04h22.8v5.32h-16.45v9.51h15.26v5.32h-15.26v9.57h16.58v5.32h-22.93ZM999.76,301.92h-11.88v-35.04h12.11c3.48,0,6.47.7,8.97,2.1,2.51,1.39,4.44,3.39,5.79,6.01,1.35,2.61,2.02,5.74,2.02,9.38s-.68,6.79-2.04,9.41c-1.35,2.62-3.29,4.64-5.83,6.04-2.53,1.4-5.58,2.1-9.14,2.1ZM994.24,296.43h5.22c2.44,0,4.48-.44,6.11-1.33,1.63-.9,2.86-2.24,3.68-4.02.82-1.79,1.23-4.03,1.23-6.71s-.41-4.91-1.23-6.67c-.82-1.78-2.03-3.11-3.64-3.99-1.6-.89-3.58-1.33-5.96-1.33h-5.4v24.06ZM1095.71,281.85v5.1h-15.78v-5.1h15.78ZM1167.12,301.92l-9.89-35.04h6.83l6.32,25.75h.32l6.74-25.75h6.21l6.76,25.77h.31l6.31-25.77h6.83l-9.89,35.04h-6.26l-7.02-24.59h-.27l-7.03,24.59h-6.26ZM1260.34,284.4c0,3.78-.71,7.01-2.12,9.7-1.4,2.68-3.32,4.73-5.75,6.16-2.42,1.43-5.16,2.14-8.23,2.14s-5.82-.71-8.25-2.14c-2.42-1.44-4.34-3.5-5.75-6.18-1.4-2.69-2.11-5.92-2.11-9.69s.7-7,2.11-9.68c1.41-2.69,3.33-4.75,5.75-6.18,2.43-1.43,5.18-2.14,8.25-2.14s5.81.71,8.23,2.14c2.43,1.43,4.35,3.48,5.75,6.18,1.42,2.68,2.12,5.91,2.12,9.68ZM1253.96,284.4c0-2.66-.42-4.9-1.25-6.72-.82-1.84-1.96-3.22-3.42-4.16-1.46-.95-3.14-1.42-5.05-1.42s-3.59.47-5.05,1.42c-1.46.94-2.61,2.32-3.44,4.16-.82,1.83-1.23,4.07-1.23,6.72s.41,4.91,1.23,6.74c.83,1.83,1.98,3.21,3.44,4.16,1.46.94,3.14,1.4,5.05,1.4s3.59-.47,5.05-1.4c1.46-.95,2.6-2.33,3.42-4.16.83-1.84,1.25-4.08,1.25-6.74ZM1288.99,301.92v-35.04h13.14c2.69,0,4.95.47,6.78,1.4,1.83.94,3.22,2.25,4.16,3.94.95,1.68,1.42,3.63,1.42,5.87s-.48,4.2-1.44,5.85c-.95,1.64-2.35,2.91-4.19,3.82-1.85.89-4.12,1.33-6.81,1.33h-9.36v-5.27h8.51c1.57,0,2.86-.22,3.87-.65,1-.44,1.75-1.09,2.22-1.93.49-.86.74-1.91.74-3.15s-.24-2.3-.74-3.18c-.49-.89-1.24-1.56-2.24-2.02-1-.47-2.3-.7-3.88-.7h-5.82v29.74h-6.35ZM1307.09,286.05l8.68,15.88h-7.08l-8.52-15.88h6.93ZM1342.97,301.92v-35.04h6.35v16.1h.43l13.67-16.1h7.75l-13.55,15.73,13.67,19.32h-7.63l-10.46-15.02-3.88,4.59v10.44h-6.35ZM1451.88,276.51c-.16-1.49-.83-2.66-2.02-3.49-1.17-.83-2.7-1.25-4.59-1.25-1.32,0-2.46.2-3.41.6-.95.4-1.67.94-2.17,1.63-.5.68-.76,1.47-.77,2.34,0,.73.17,1.36.5,1.9.34.54.8.99,1.39,1.37.58.37,1.23.67,1.93.92.7.25,1.42.46,2.14.63l3.28.82c1.32.31,2.59.72,3.82,1.25,1.23.52,2.33,1.19,3.3,1.98.98.8,1.75,1.76,2.32,2.89.57,1.13.86,2.45.86,3.97,0,2.05-.52,3.86-1.58,5.42-1.05,1.55-2.56,2.77-4.55,3.65-1.97.87-4.36,1.3-7.17,1.3s-5.09-.42-7.1-1.27c-1.99-.84-3.56-2.08-4.69-3.7-1.12-1.62-1.72-3.59-1.81-5.92h6.25c.09,1.22.47,2.24,1.13,3.05.66.81,1.52,1.41,2.58,1.81,1.07.4,2.27.6,3.59.6s2.59-.21,3.63-.62c1.05-.42,1.87-1,2.46-1.75.59-.75.89-1.63.9-2.64-.01-.91-.28-1.67-.8-2.26-.52-.6-1.26-1.11-2.21-1.51-.93-.41-2.03-.78-3.28-1.1l-3.99-1.03c-2.89-.74-5.17-1.87-6.85-3.37-1.66-1.52-2.5-3.53-2.5-6.04,0-2.06.56-3.87,1.68-5.42,1.13-1.55,2.66-2.75,4.6-3.61,1.94-.87,4.13-1.3,6.59-1.3s4.67.43,6.53,1.3c1.88.86,3.36,2.05,4.43,3.58,1.07,1.52,1.63,3.26,1.66,5.24h-6.11ZM1486.77,301.92v-35.04h13.14c2.69,0,4.95.5,6.78,1.51,1.83,1,3.22,2.38,4.16,4.14.95,1.75,1.42,3.73,1.42,5.95s-.47,4.24-1.42,5.99c-.95,1.75-2.34,3.12-4.19,4.12-1.85.99-4.12,1.49-6.83,1.49h-8.71v-5.22h7.85c1.57,0,2.86-.27,3.87-.82,1-.55,1.75-1.3,2.22-2.26.49-.96.74-2.06.74-3.3s-.25-2.34-.74-3.29c-.48-.95-1.23-1.68-2.24-2.21-1-.54-2.3-.8-3.88-.8h-5.82v29.74h-6.35ZM1541.02,301.92h-6.78l12.34-35.04h7.84l12.36,35.04h-6.78l-9.36-27.86h-.27l-9.34,27.86ZM1541.25,288.18h18.48v5.1h-18.48v-5.1ZM1622.39,278.7h-6.4c-.19-1.05-.52-1.98-1.01-2.79-.49-.82-1.1-1.52-1.83-2.09-.73-.57-1.56-1-2.5-1.28-.92-.3-1.92-.44-2.99-.44-1.91,0-3.59.48-5.06,1.44-1.47.95-2.62,2.34-3.46,4.18-.83,1.83-1.25,4.06-1.25,6.69s.42,4.94,1.25,6.78c.85,1.83,2,3.21,3.46,4.14,1.47.92,3.15,1.39,5.05,1.39,1.05,0,2.03-.14,2.94-.41.92-.29,1.75-.7,2.48-1.25.74-.55,1.36-1.22,1.86-2.02.52-.8.87-1.71,1.06-2.74l6.4.03c-.24,1.67-.76,3.23-1.56,4.69-.79,1.46-1.82,2.75-3.1,3.87-1.28,1.11-2.77,1.97-4.48,2.6-1.71.62-3.61.92-5.7.92-3.08,0-5.83-.71-8.25-2.14-2.42-1.43-4.33-3.48-5.72-6.18-1.39-2.69-2.09-5.92-2.09-9.69s.7-7,2.11-9.68c1.4-2.69,3.31-4.75,5.73-6.18,2.42-1.43,5.16-2.14,8.21-2.14,1.95,0,3.76.27,5.44.82,1.68.55,3.17,1.35,4.48,2.41,1.31,1.05,2.39,2.34,3.24,3.87.86,1.52,1.41,3.25,1.68,5.2ZM1650.85,301.92v-35.04h22.79v5.32h-16.45v9.51h15.26v5.32h-15.26v9.57h16.58v5.32h-22.93ZM1721.81,276.51c-.16-1.49-.83-2.66-2.02-3.49-1.18-.83-2.7-1.25-4.59-1.25-1.32,0-2.46.2-3.4.6-.95.4-1.67.94-2.18,1.63-.5.68-.76,1.47-.77,2.34,0,.73.16,1.36.49,1.9.34.54.8.99,1.39,1.37.58.37,1.23.67,1.93.92.71.25,1.42.46,2.14.63l3.28.82c1.32.31,2.6.72,3.82,1.25,1.23.52,2.33,1.19,3.3,1.98.98.8,1.76,1.76,2.33,2.89.57,1.13.86,2.45.86,3.97,0,2.05-.53,3.86-1.58,5.42-1.05,1.55-2.57,2.77-4.55,3.65-1.98.87-4.36,1.3-7.17,1.3s-5.1-.42-7.1-1.27c-2-.84-3.56-2.08-4.69-3.7-1.12-1.62-1.72-3.59-1.82-5.92h6.25c.09,1.22.47,2.24,1.13,3.05.66.81,1.52,1.41,2.58,1.81,1.07.4,2.27.6,3.6.6s2.59-.21,3.63-.62c1.05-.42,1.87-1,2.46-1.75.59-.75.9-1.63.91-2.64-.01-.91-.28-1.67-.8-2.26-.53-.6-1.26-1.11-2.21-1.51-.93-.41-2.03-.78-3.28-1.1l-3.99-1.03c-2.88-.74-5.17-1.87-6.84-3.37-1.67-1.52-2.5-3.53-2.5-6.04,0-2.06.56-3.87,1.68-5.42,1.13-1.55,2.67-2.75,4.6-3.61,1.94-.87,4.14-1.3,6.59-1.3s4.67.43,6.54,1.3c1.88.86,3.36,2.05,4.43,3.58,1.07,1.52,1.62,3.26,1.66,5.24h-6.11Z"></path></g></g></svg> 